PathFileType	4	(X/Y/Z)	s10c0403.trc
DataRate	CameraRate	NumFrames	NumMarkers	Units	OrigDataRate	OrigDataStartFrame	OrigNumFrames
200	200	4	49	mm	200	1750	2000
Frame#	Time	racr			lacr			c7			jug			rlel			rdr			llel			ldr			s2			lic			ric			lasi			rasi			rpsi			lpsi			rgt			lgt			rth1			rth2			rth3			rth4			rlfc			rmfc			rsh1			rsh2			rsh3			rsh4			rlmal			rmmal			rcal			rtoe			rmt5			lth1			lth2			lth4			lth3			llfc			lmfc			llmal			lcal			lmt5			lsh1			lsh2			lsh3			lsh4			ltoe			SBIKE			LBIKE			RBIKE			
		X1	Y1	Z1	X2	Y2	Z2	X3	Y3	Z3	X4	Y4	Z4	X5	Y5	Z5	X6	Y6	Z6	X7	Y7	Z7	X8	Y8	Z8	X9	Y9	Z9	X10	Y10	Z10	X11	Y11	Z11	X12	Y12	Z12	X13	Y13	Z13	X14	Y14	Z14	X15	Y15	Z15	X16	Y16	Z16	X17	Y17	Z17	X18	Y18	Z18	X19	Y19	Z19	X20	Y20	Z20	X21	Y21	Z21	X22	Y22	Z22	X23	Y23	Z23	X24	Y24	Z24	X25	Y25	Z25	X26	Y26	Z26	X27	Y27	Z27	X28	Y28	Z28	X29	Y29	Z29	X30	Y30	Z30	X31	Y31	Z31	X32	Y32	Z32	X33	Y33	Z33	X34	Y34	Z34	X35	Y35	Z35	X36	Y36	Z36	X37	Y37	Z37	X38	Y38	Z38	X39	Y39	Z39	X40	Y40	Z40	X41	Y41	Z41	X42	Y42	Z42	X43	Y43	Z43	X44	Y44	Z44	X45	Y45	Z45	X46	Y46	Z46	X47	Y47	Z47	X48	Y48	Z48	X49	Y49	Z49	
1750	8.7500	587.350910	1367.035846	-102.768922	588.422687	1366.305561	-386.662319	566.327456	1373.748036	-244.200627	572.801208	1230.280598	-240.844830	542.996820	1106.486020	8.254963	619.654403	905.007541	-42.536318	543.641769	1100.487938	-512.263676	620.586415	905.200707	-438.948992	52.551388	1143.878815	-174.812513	193.440231	1155.608457	-341.270890	261.693212	1123.071601	-83.449237	215.875787	1066.729013	-337.089529	243.413998	1040.774301	-92.694681	116.517575	1188.458312	-122.098798	98.500266	1206.761745	-231.873579	137.299287	1022.057035	-10.662301	85.670810	1046.171481	-391.151821	159.252866	883.692507	4.415818	191.759193	803.467513	-15.210556	178.399214	719.351206	-27.596354	227.532641	810.803435	-26.619758	202.066119	617.379449	-48.746582	177.079916	613.105860	-163.350739	123.654342	531.881872	-18.618734	107.696083	445.340399	-31.794908	52.629143	379.392682	-36.752272	136.555955	435.201125	-55.372183	9.226551	291.009293	-50.382457	31.706591	292.343036	-130.645571	-43.234036	299.008590	-98.444117	155.946617	160.131734	-104.495761	74.381181	177.790388	-39.706770	196.130483	977.275949	-417.036727	282.485846	971.797543	-410.902954	293.817364	1003.501838	-396.723844	356.441942	923.002102	-418.535620	458.449695	884.359016	-407.355572	479.593918	868.280901	-280.878489	204.400360	591.440904	-386.672744	141.479513	582.156794	-341.133088	270.962733	462.289420	-402.816937	372.548307	797.362335	-427.701262	341.229752	715.904401	-415.382148	269.533567	662.916639	-406.660649	366.731444	700.110142	-391.745310	351.011606	456.633678	-350.433031	-217.703018	831.208455	-213.799458	-103.921851	80.585689	-418.320374	-103.917551	80.579070	-18.262065	
1751	8.7550	586.298125	1366.874761	-102.792992	589.101295	1365.574275	-387.362989	566.629586	1373.446700	-244.617935	572.528108	1230.190843	-240.974378	542.335643	1106.674947	8.361660	619.603893	905.202657	-42.520968	542.968457	1099.985332	-513.109220	620.480157	905.135280	-438.908555	51.021843	1147.528862	-177.260048	193.058684	1157.462180	-342.430940	258.492606	1126.002031	-84.990240	214.632226	1068.484398	-337.837285	241.861292	1044.575799	-92.858093	115.170962	1191.728784	-124.446618	97.747519	1209.688017	-234.248804	135.178760	1026.364793	-11.586934	85.512831	1048.335248	-392.158427	159.266453	886.922321	4.124163	193.513135	807.386831	-15.248169	182.382326	722.975309	-27.115175	229.159316	815.455381	-26.491239	206.901739	621.266784	-47.299167	183.004828	616.875802	-161.911048	126.240968	537.210790	-17.846994	108.459865	451.172243	-31.281492	51.982081	386.407975	-36.741071	137.324940	440.177394	-54.645869	6.526686	299.679402	-50.638742	29.278198	300.156976	-130.732687	-45.302578	309.648573	-98.820861	148.041576	162.799344	-104.439164	67.330976	184.035774	-39.842578	194.688683	977.693179	-417.296039	280.935253	971.235379	-410.675182	292.594710	1002.865170	-396.806249	354.374734	921.443265	-417.485963	456.340618	881.903015	-405.773991	476.536727	867.675752	-278.260270	208.417238	583.124539	-386.580155	145.449757	572.339636	-341.693801	278.765363	456.100087	-402.738458	373.148217	792.877027	-426.716967	343.139675	710.767629	-414.290904	272.369964	656.651001	-406.645099	368.646085	695.722152	-390.257109	358.820673	453.321903	-350.574203	-217.711777	831.221741	-213.865340	-103.904743	80.628881	-418.347055	-103.920624	80.592213	-18.277822	
1752	8.7600	585.500839	1366.609175	-102.780541	589.893598	1364.766182	-387.873548	566.942094	1373.300574	-244.977134	572.160862	1230.124127	-241.074669	541.958069	1106.769497	8.343797	619.616311	905.335597	-42.519303	542.402993	1099.601464	-513.689041	620.405812	905.103363	-438.907263	49.431315	1150.432741	-179.692465	192.484352	1159.014888	-343.548345	256.386019	1128.970847	-85.958671	213.217092	1069.994150	-338.633726	240.331940	1048.449248	-92.886112	113.671311	1195.244692	-127.087016	96.901805	1212.495720	-236.636342	132.877621	1030.674053	-12.479503	85.378576	1050.406536	-393.307243	159.256450	890.260397	3.808203	195.489462	811.511537	-15.323834	186.499665	726.780905	-26.562904	231.077765	820.359566	-26.388963	212.486638	625.255556	-45.813635	189.645380	620.685630	-160.520749	129.671938	542.764944	-16.990374	110.023053	457.108604	-30.651137	52.054869	393.629873	-36.531634	138.780961	445.487458	-53.802700	4.547571	308.804832	-50.588282	27.567825	308.591639	-130.653383	-46.287528	321.066012	-98.992669	140.326178	165.809225	-104.327437	60.709727	190.689383	-39.842800	193.095402	977.693153	-417.542060	279.283047	970.158992	-410.388660	291.251087	1001.919784	-397.028149	352.083676	919.306600	-416.339935	454.277189	878.390434	-403.816458	471.542281	865.642557	-277.247851	212.328352	574.749576	-387.498775	149.212004	561.930998	-342.349708	286.152037	449.562987	-402.923633	373.263808	787.662534	-425.712240	344.545695	705.152347	-413.296514	274.844358	649.656560	-406.505045	370.053092	690.678890	-388.807814	366.214152	449.290922	-350.803753	-217.706623	831.243999	-213.891576	-103.921835	80.656272	-418.393422	-103.934076	80.603079	-18.312024	
1753	8.7650	584.744027	1366.255272	-102.708052	590.678463	1364.039088	-388.204364	567.276406	1373.102943	-245.135044	571.695199	1230.043831	-241.145452	542.118102	1106.889104	8.257692	619.694592	905.443204	-42.538443	541.790608	1099.209827	-514.215269	620.348021	905.164862	-438.855633	47.257345	1153.271586	-180.293609	192.156839	1160.676468	-345.343527	254.111348	1132.082691	-86.821008	211.614490	1071.306750	-339.432777	238.819018	1051.945252	-92.716935	112.124386	1198.578360	-129.961554	96.944013	1215.148372	-239.545736	130.419678	1035.073353	-13.308520	85.146218	1052.294230	-394.653997	159.293713	893.521491	3.407622	197.727471	815.725552	-15.354988	191.178181	730.758383	-25.870050	232.928248	825.570119	-26.355439	218.709536	629.368827	-44.391397	197.157675	624.359870	-159.080417	133.747269	548.432200	-16.073110	112.219153	463.316531	-29.914959	52.762421	401.146510	-36.173747	140.840957	451.063215	-52.917663	3.175293	318.207302	-50.418640	26.453410	317.018191	-130.422960	-46.951138	332.701673	-99.236867	132.853530	169.262524	-104.250956	54.430436	197.846762	-39.927052	191.326101	977.327264	-417.813682	277.577742	968.407339	-410.152784	289.739905	1000.399273	-397.207524	349.456948	916.716815	-415.271675	452.008557	874.233509	-401.798348	466.867141	863.070265	-275.890276	215.871392	565.089614	-387.455772	153.166249	550.547660	-342.619103	293.168988	442.369413	-402.983290	372.790316	781.854494	-424.681232	345.475562	698.747471	-412.058931	276.891158	641.946553	-406.401308	370.949302	684.796638	-387.398621	373.251130	444.472523	-350.925588	-217.715316	831.280213	-213.944478	-103.930868	80.722972	-418.412061	-103.927834	80.676902	-18.304192	
